<?xml version="1.0" encoding="utf-8"?>
<svg version="1.1" x="0px" y="0px" viewBox="0 0 1000 1000" enable-background="new 0 0 1000 1000" xmlns="http://www.w3.org/2000/svg">
  <g>
    <path d="M974.6,611.7H544.2c-8.5,0-15.4-6.9-15.4-15.3c0-8.5,6.9-15.4,15.4-15.4h430.4c8.5,0,15.4,6.9,15.4,15.4C990,604.8,983.1,611.7,974.6,611.7z" style="fill: rgb(255, 255, 255);"/>
    <path d="M759.4,827c-8.5,0-15.4-6.9-15.4-15.4V381.1c0-8.5,6.9-15.3,15.4-15.3c8.4,0,15.3,6.9,15.3,15.3v430.4C774.8,820,767.8,827,759.4,827z" style="fill: rgb(255, 255, 255);"/>
    <path d="M25.4,718.3c-4.1,0-8-1.6-10.8-4.6c-3-2.9-4.6-6.7-4.6-10.9v-44c0.1-6.2,3.4-37.3,62.6-63.7c6.7-3,14.1-7.3,22.6-12c19.8-11.1,45.4-25.6,77.7-34.9c-8.5-14.3-16.3-32-24.7-53.5c-6.9-17.3-6.8-32.2-6.7-49.4v-7.6c0-4.1-0.1-8.8-0.4-13.9c-0.8-14.3-1.4-30.5,1.8-42.3c12.6-45.3,45.1-68.3,96.1-68.3s83.4,22.9,96,68.2c3.4,11.9,2.7,28.2,2,42.5c-0.1,5-0.4,9.8-0.4,13.9l0.1,7.5c0.1,17.2,0.3,32.1-6.4,49.4c-9,22.8-19,46.2-32.1,63.9c-1.1,1.7-2.6,2.9-4.3,4c-55.6,34-60.2,69.4-60.3,79.5v60.9c0,8.5-6.8,15.4-15.4,15.4L25.4,718.3z M239,343.9c-37.6,0-57.6,13.8-66.6,45.9c-2,7-1.3,21.2-0.8,32.7c0.3,5.5,0.4,10.7,0.4,15.2v7.8c-0.1,15.8-0.1,26.3,4.5,38.1c11.3,28.8,21.5,50.8,33.6,63.8c3.9,4.1,5.1,10,3.4,15.3c-1.7,5.3-6.3,9.2-11.8,10.2c-38.6,7.1-67.9,23.6-91.6,36.9c-9.5,5.3-17.8,9.9-25.2,13.2c-41.4,18.4-44.3,36.5-44.4,36.7l0.1,27.7h162v-45.3c0.3-18.3,7.6-63.6,72.3-104.3c10.2-14.7,18.8-34.8,26.6-54.5c4.5-11.9,4.5-22.1,4.3-37.9v-7.8c0-4.5,0.2-9.7,0.5-15.3c0.5-11.5,1.3-25.7-0.8-32.8C296.7,357.5,276.7,343.9,239,343.9z" style="fill: rgb(255, 255, 255);"/>
    <path d="M264,718.3c-4.1,0-7.9-1.6-10.9-4.6c-2.8-2.9-4.5-6.7-4.5-10.8v-60.6c0.1-4.9,2.8-46.8,82.6-82.4c9.2-4.1,19.7-10,31.6-16.7c28.3-16,65.7-36.9,113-49.4c-13.4-20.4-24.9-46.3-37.9-79.2c-9-22.8-8.9-42.7-8.6-65.8l0.1-10.4c0-5.6-0.4-12.2-0.7-19.3c-0.8-19.3-1.9-41.2,2.5-56.5c16.9-60.3,58.3-89.6,126.6-89.6c68.2,0,109.7,29.2,126.6,89.5c4.4,15.3,3.4,37.2,2.5,56.6c-0.3,7.2-0.6,13.7-0.6,19.3v10.6c0.1,22.9,0.3,42.8-8.5,65.5c-12.6,31.8-24.2,58.3-38,79.1c2.2,0.6,4.5,1.2,6.7,1.8c8.1,2.3,12.8,10.8,10.6,19c-2.5,8.2-10.6,12.9-19,10.6c-8.9-2.5-18.2-4.6-27.9-6.3c-5.5-1.1-10.1-5-11.9-10.2c-1.7-5.3-0.5-11.3,3.4-15.4c17.8-19,31.8-49.6,47.5-89.5c6.8-17.1,6.6-32.6,6.6-54l-0.1-10.8c0-6,0.3-13.2,0.6-20.6c0.8-16.1,1.7-36.5-1.3-47c-13.1-46.4-43-67.1-97.1-67.1s-84,20.7-97.2,67.3c-2.9,10.5-2,30.5-1.3,46.6c0.3,7.4,0.8,14.6,0.8,20.7v10.6c-0.2,21.6-0.4,37.2,6.4,54.5c16,40.3,30,71,47.5,89.6c3.8,4.2,5,10,3.3,15.4c-1.7,5.2-6.3,9.2-11.8,10.2c-53.9,9.9-94.7,32.8-127.7,51.4c-12.7,7.2-24.2,13.5-34.1,18c-61,27.2-64.4,54.8-64.4,54.9v44.7h366.2c8.5,0,15.5,6.8,15.5,15.3s-7,15.4-15.5,15.4L264,718.3z" style="fill: rgb(255, 255, 255);"/>
  </g>
</svg>